<svg width="438" height="494" viewBox="0 0 438 494" fill="none" xmlns="http://www.w3.org/2000/svg">
<path d="M433.624 380.418L298.325 344.164C296.725 343.736 295.079 344.684 294.649 346.287L266.164 452.593C265.735 454.196 266.687 455.84 268.287 456.269L403.585 492.522C405.185 492.951 406.832 492.003 407.261 490.4L435.746 384.093C436.175 382.49 435.224 380.846 433.624 380.418ZM402.24 485.947L272.739 451.247L299.67 350.739L429.171 385.439L402.24 485.947Z" fill="#ED1B24" stroke="#ED1B24"/>
<path d="M319.975 408.328C327.661 410.387 335.588 405.811 337.647 398.127C339.707 390.438 335.131 382.511 327.444 380.452C319.758 378.392 311.831 382.968 309.772 390.655C307.712 398.341 312.289 406.268 319.975 408.328ZM325.891 386.25C330.379 387.452 333.052 392.085 331.85 396.571C330.648 401.056 326.017 403.732 321.529 402.529C317.041 401.327 314.367 396.696 315.569 392.211C316.771 387.725 321.403 385.047 325.891 386.25Z" fill="#ED1B24" stroke="#ED1B24"/>
<path d="M288.774 445.447L288.774 445.447L337.065 421.517L355.052 452.668C355.881 454.105 357.714 454.596 359.151 453.766C360.588 452.936 361.079 451.104 360.249 449.667L351.986 435.355L379.852 417.535L400.107 449.343L400.107 449.343C400.998 450.741 402.854 451.151 404.252 450.261C405.649 449.371 406.063 447.515 405.169 446.116L383.298 411.772L383.298 411.771C382.865 411.094 382.179 410.639 381.425 410.455L381.425 410.455L381.414 410.453C380.637 410.282 379.821 410.427 379.15 410.856L379.15 410.856L348.984 430.151L340.856 416.074L340.856 416.073C340.062 414.702 338.344 414.182 336.925 414.884L336.925 414.884L286.111 440.067C284.625 440.803 284.018 442.604 284.754 444.09L284.754 444.09C285.153 444.897 285.866 445.442 286.667 445.657C287.345 445.838 288.094 445.784 288.774 445.447Z" fill="#ED1B24" stroke="#ED1B24"/>
<path d="M238.386 232.82L148.307 301.035C147.199 301.874 146.979 303.452 147.82 304.562L201.417 375.339C202.258 376.449 203.837 376.665 204.945 375.826L295.024 307.611C296.132 306.772 296.352 305.194 295.511 304.084L241.914 233.307C241.073 232.197 239.494 231.981 238.386 232.82ZM289.977 305.116L203.912 370.292L153.354 303.529L239.419 238.354L289.977 305.116Z" fill="#ED1B24" stroke="#ED1B24"/>
<path d="M200.006 319.171C205.166 315.263 206.185 307.888 202.278 302.73C198.369 297.568 190.995 296.55 185.835 300.457C180.675 304.365 179.656 311.74 183.564 316.9C187.471 322.06 194.846 323.078 200.006 319.171ZM188.875 304.472C191.82 302.241 196.033 302.824 198.263 305.768C200.492 308.712 199.911 312.926 196.966 315.156C194.02 317.387 189.808 316.805 187.579 313.861C185.35 310.917 185.929 306.702 188.875 304.472Z" fill="#ED1B24" stroke="#ED1B24"/>
<path d="M208.233 357.363L208.234 357.363L216.886 314.849L245.54 318.805C246.919 318.996 248.188 318.035 248.379 316.656C248.569 315.277 247.608 314.008 246.229 313.818L233.115 312.006L235.546 285.625L265.736 288.466L265.736 288.466C267.12 288.596 268.348 287.577 268.478 286.194C268.608 284.81 267.592 283.58 266.205 283.452L233.504 280.375L233.503 280.375C232.831 280.313 232.177 280.534 231.669 280.937L231.669 280.937L231.66 280.944C231.146 281.371 230.823 281.985 230.761 282.651L230.761 282.651L228.122 311.315L215.233 309.535L215.233 309.535C213.916 309.355 212.687 310.225 212.421 311.526L212.421 311.526L203.299 356.356C203.021 357.72 203.902 359.049 205.264 359.327L205.264 359.327C206.004 359.478 206.732 359.286 207.287 358.866C207.757 358.511 208.106 357.987 208.233 357.363Z" fill="#ED1B24" stroke="#ED1B24"/>
<path d="M94.2578 166.258L70.9372 244.693C70.6287 245.73 71.2186 246.823 72.2581 247.132L133.886 265.455C134.925 265.764 136.016 265.172 136.324 264.134L159.645 185.699C159.953 184.662 159.364 183.57 158.324 183.26L96.6966 164.937C95.6571 164.628 94.5663 165.221 94.2578 166.258ZM155.326 186.461L133.124 261.136L75.2559 243.931L97.4586 169.256L155.326 186.461Z" fill="#ED1B24" stroke="#ED1B24"/>
<path d="M109.149 233.188C110.507 228.622 107.898 223.805 103.333 222.447C98.7656 221.089 93.9481 223.699 92.5905 228.265C91.2329 232.831 93.8422 237.648 98.4082 239.006C102.974 240.363 107.792 237.754 109.149 233.188ZM96.3503 229.383C97.0911 226.891 99.7232 225.466 102.214 226.207C104.704 226.947 106.13 229.578 105.389 232.07C104.649 234.562 102.018 235.987 99.5275 235.246C97.0369 234.506 95.6095 231.874 96.3503 229.383Z" fill="#ED1B24" stroke="#ED1B24"/>
<path d="M130.32 251.852L130.32 251.852L117.194 223.448L135.5 213.532C136.453 213.016 136.806 211.827 136.29 210.874C135.774 209.921 134.585 209.567 133.632 210.084L125.317 214.587L115.564 198.38L134.282 187.164L134.282 187.164C135.211 186.607 135.512 185.401 134.955 184.473C134.399 183.544 133.194 183.241 132.264 183.8L111.861 196.026L111.861 196.026L111.86 196.027C111.408 196.298 111.1 196.738 110.968 197.223L110.968 197.223L110.966 197.234C110.84 197.738 110.92 198.273 111.189 198.719L111.189 198.72L121.865 216.456L113.706 220.875L113.706 220.875C112.797 221.369 112.426 222.482 112.859 223.422L112.859 223.422L126.758 253.496C126.758 253.496 126.758 253.496 126.758 253.496C127.213 254.48 128.378 254.908 129.362 254.454L129.362 254.454C129.896 254.208 130.265 253.751 130.419 253.232C130.55 252.792 130.528 252.302 130.32 251.852Z" fill="#ED1B24" stroke="#ED1B24"/>
<path d="M89.7536 108.534L35.1067 82.0235C34.3586 81.6606 33.4079 81.8949 33.0299 82.6741L13.983 121.936C13.605 122.716 14.0095 123.607 14.7576 123.97L69.4045 150.48C70.1526 150.843 71.1033 150.609 71.4813 149.83L90.5282 110.568C90.9062 109.788 90.5017 108.897 89.7536 108.534ZM69.281 147.104L17.4855 121.977L35.2301 85.3995L87.0257 110.526L69.281 147.104Z" fill="#ED1B24" stroke="#ED1B24"/>
<path d="M39.7244 109.778C42.9308 111.334 46.7697 110.24 48.2372 107.215C49.7055 104.188 48.1889 100.495 44.9823 98.9399C41.7758 97.3844 37.9369 98.4787 36.469 101.505C35.0012 104.53 36.5179 108.223 39.7244 109.778ZM43.6801 101.624C45.3907 102.454 46.0993 104.361 45.3862 105.83C44.6732 107.3 42.7373 107.924 41.0266 107.094C39.3158 106.264 38.607 104.358 39.32 102.889C40.0331 101.419 41.9696 100.794 43.6801 101.624Z" fill="#ED1B24" stroke="#ED1B24"/>
<path d="M24.2915 121.584L24.2919 121.584L46.0097 116.587L51.4451 130.257C51.753 131.032 52.6331 131.459 53.432 131.221C54.2644 130.974 54.6871 130.103 54.3662 129.296L51.9493 123.216L64.3342 118.913L70.667 133.037L70.667 133.037C71.0075 133.796 71.9046 134.191 72.6922 133.919C73.5135 133.635 73.8919 132.742 73.5361 131.951L66.588 116.455L66.5876 116.454C66.4182 116.078 66.1062 115.794 65.7514 115.631L65.7514 115.631L65.742 115.626C65.3692 115.464 64.9448 115.441 64.5606 115.574L64.5605 115.574L50.8116 120.353L48.4132 114.32L48.4129 114.319C48.1174 113.579 47.2966 113.152 46.521 113.33L46.5205 113.33L23.4291 118.644C22.5854 118.838 22.0973 119.676 22.3664 120.503L22.3664 120.503C22.5084 120.94 22.8297 121.272 23.2097 121.457C23.5323 121.613 23.9142 121.671 24.2915 121.584Z" fill="#ED1B24" stroke="#ED1B24"/>
<path d="M34.011 2.21426L2.21425 34.011C1.73624 34.489 1.65394 35.2934 2.16565 35.8051L25.0107 58.6502C25.5225 59.1619 26.3269 59.0796 26.8049 58.6016L58.6016 26.8049C59.0796 26.3269 59.1619 25.5225 58.6502 25.0108L35.8051 2.16567C35.2934 1.65396 34.489 1.73625 34.011 2.21426ZM55.9348 25.9807L25.9807 55.9348L4.88112 34.8352L34.8352 4.88113L55.9348 25.9807Z" fill="#ED1B24" stroke="#ED1B24"/>
<path d="M22.9324 37.6954C24.8409 35.7869 25.0219 32.7536 23.2036 30.9352C21.3842 29.1159 18.351 29.2967 16.4424 31.2053C14.5339 33.1139 14.3529 36.1471 16.1718 37.966C17.9906 39.7848 21.0239 39.6039 22.9324 37.6954ZM18.1879 32.9508C19.1405 31.9983 20.5634 31.9804 21.3603 32.7774C22.1573 33.5744 22.1394 34.9973 21.1869 35.9498C20.2342 36.9025 18.8119 36.9206 18.015 36.1238C17.2179 35.3267 17.2355 33.9032 18.1879 32.9508Z" fill="#ED1B24" stroke="#ED1B24"/>
<path d="M27.4854 51.2757L27.4853 51.2761C27.4509 51.5928 27.3033 51.8727 27.0963 52.0796C26.8528 52.3231 26.5093 52.4836 26.1308 52.4764L26.1306 52.4764C25.4089 52.4623 24.8842 51.8499 24.9612 51.1386C24.9612 51.1385 24.9613 51.1384 24.9613 51.1383L26.8442 33.6971L26.8442 33.6966C26.9149 33.0478 27.464 32.5275 28.1179 32.4974L28.1186 32.4973L32.7962 32.2882L32.7881 21.6362L32.7881 21.6361C32.7879 21.3007 32.9207 20.9786 33.1455 20.7344L33.1525 20.7268L33.1525 20.7269C33.3715 20.4986 33.6744 20.3327 34.0135 20.3022L34.0144 20.3021L46.5386 19.1999C46.5387 19.1999 46.5388 19.1999 46.539 19.1999L46.5393 19.1998L46.5831 19.6979C47.0084 19.6599 47.3524 19.9732 47.3519 20.3963C47.3515 20.8194 47.0066 21.1934 46.5818 21.2308L27.4854 51.2757ZM27.4854 51.2757L29.2449 34.983L27.4854 51.2757Z" fill="#ED1B24" stroke="#ED1B24"/>
</svg>
